<svg id="visual" viewBox="0 0 1920 1080" width="1920" height="1080" xmlns="http://www.w3.org/2000/svg" xmlns:xlink="http://www.w3.org/1999/xlink" version="1.1"><rect x="0" y="0" width="1920" height="1080" fill="#ffe3f8"></rect><path d="M0 600L45.7 588C91.3 576 182.7 552 274.2 524.5C365.7 497 457.3 466 548.8 448.5C640.3 431 731.7 427 823 439.2C914.3 451.3 1005.7 479.7 1097 484C1188.3 488.3 1279.7 468.7 1371.2 438.5C1462.7 408.3 1554.3 367.7 1645.8 387.8C1737.3 408 1828.7 489 1874.3 529.5L1920 570L1920 0L1874.3 0C1828.7 0 1737.3 0 1645.8 0C1554.3 0 1462.7 0 1371.2 0C1279.7 0 1188.3 0 1097 0C1005.7 0 914.3 0 823 0C731.7 0 640.3 0 548.8 0C457.3 0 365.7 0 274.2 0C182.7 0 91.3 0 45.7 0L0 0Z" fill="#ffffff" stroke-linecap="round" stroke-linejoin="miter"></path></svg>