<svg id="visual" viewBox="0 0 900 600" width="900" height="600" xmlns="http://www.w3.org/2000/svg" xmlns:xlink="http://www.w3.org/1999/xlink" version="1.1"><rect x="0" y="0" width="900" height="600" fill="#ffffff"></rect><defs><linearGradient id="grad1_0" x1="33.3%" y1="0%" x2="100%" y2="100%"><stop offset="20%" stop-color="#ffffff" stop-opacity="1"></stop><stop offset="80%" stop-color="#ffffff" stop-opacity="1"></stop></linearGradient></defs><defs><linearGradient id="grad2_0" x1="0%" y1="0%" x2="66.7%" y2="100%"><stop offset="20%" stop-color="#ffffff" stop-opacity="1"></stop><stop offset="80%" stop-color="#ffffff" stop-opacity="1"></stop></linearGradient></defs><g transform="translate(900, 0)"><path d="M0 357C-33.7 382.7 -67.3 408.5 -90.3 395.5C-113.2 382.4 -125.5 330.6 -151 313.5C-176.5 296.5 -215.3 314.1 -246.9 309.6C-278.6 305.1 -303.1 278.3 -308.8 246.3C-314.6 214.2 -301.5 177 -311.7 150.1C-322 123.3 -355.6 106.9 -366.6 83.7C-377.5 60.4 -365.8 30.2 -354 0L0 0Z" fill="#aba4d5"></path></g><g transform="translate(0, 600)"><path d="M0 -401C24.1 -374.5 48.2 -348 78.8 -345.1C109.4 -342.3 146.5 -363 171.4 -355.9C196.2 -348.7 208.8 -313.7 235.7 -295.5C262.5 -277.4 303.7 -276.2 317.1 -252.9C330.5 -229.6 316.2 -184.3 315.3 -151.9C314.5 -119.4 327.2 -99.9 336.4 -76.8C345.5 -53.6 351.3 -26.8 357 0L0 0Z" fill="#aba4d5"></path></g></svg>