<svg id="visual" viewBox="0 0 540 960" width="200vw" height="960" xmlns="http://www.w3.org/2000/svg" xmlns:xlink="http://www.w3.org/1999/xlink" version="1.1"><rect x="0" y="0" width="540" height="960" fill="#ffffff"></rect><defs><linearGradient id="grad1_0" x1="0%" y1="0%" x2="100%" y2="100%"><stop offset="30%" stop-color="#ffffff" stop-opacity="1"></stop><stop offset="70%" stop-color="#ffffff" stop-opacity="1"></stop></linearGradient></defs><defs><linearGradient id="grad2_0" x1="0%" y1="0%" x2="100%" y2="100%"><stop offset="30%" stop-color="#ffffff" stop-opacity="1"></stop><stop offset="70%" stop-color="#ffffff" stop-opacity="1"></stop></linearGradient></defs><g transform="translate(540, 0)"><path d="M0 359C-46.2 377.5 -92.4 396 -122.7 377.6C-153 359.2 -167.5 303.8 -202.8 279.1C-238.1 254.4 -294.3 260.3 -327.7 238.1C-361 215.8 -371.4 165.5 -372.8 121.1C-374.2 76.8 -366.6 38.4 -359 0L0 0Z" fill="#aba4d5"></path></g><g transform="translate(0, 960)"><path d="M0 -405C38.6 -385.9 77.3 -366.9 112.8 -347.1C148.3 -327.4 180.6 -307 205.1 -282.3C229.6 -257.7 246.3 -228.8 280.7 -204C315.2 -179.1 367.5 -158.2 384.2 -124.8C400.9 -91.5 382 -45.8 363 0L0 0Z" fill="#aba4d5"></path></g></svg>