<svg id="visual" viewBox="0 0 900 600" width="900" height="600" xmlns="http://www.w3.org/2000/svg" xmlns:xlink="http://www.w3.org/1999/xlink" version="1.1"><rect x="0" y="0" width="900" height="600" fill="#ffffff"></rect><defs><linearGradient id="grad1_0" x1="33.3%" y1="100%" x2="100%" y2="0%"><stop offset="20%" stop-color="#ffffff" stop-opacity="1"></stop><stop offset="80%" stop-color="#ffffff" stop-opacity="1"></stop></linearGradient></defs><defs><linearGradient id="grad2_0" x1="0%" y1="100%" x2="66.7%" y2="0%"><stop offset="20%" stop-color="#ffffff" stop-opacity="1"></stop><stop offset="80%" stop-color="#ffffff" stop-opacity="1"></stop></linearGradient></defs><g transform="translate(932, 600)"><path d="M-357 0C-382.7 -33.7 -408.5 -67.3 -395.5 -90.3C-382.4 -113.2 -330.6 -125.5 -313.5 -151C-296.5 -176.5 -314.1 -215.3 -309.6 -246.9C-305.1 -278.6 -278.3 -303.1 -246.3 -308.8C-214.2 -314.6 -177 -301.5 -150.1 -311.7C-123.3 -322 -106.9 -355.6 -83.7 -366.6C-60.4 -377.5 -30.2 -365.8 0 -354L0 0Z" fill="#aba4d5"></path></g><g transform="translate(-30, 0)"><path d="M401 0C374.5 24.1 348 48.2 345.1 78.8C342.3 109.4 363 146.5 355.9 171.4C348.7 196.2 313.7 208.8 295.5 235.7C277.4 262.5 276.2 303.7 252.9 317.1C229.6 330.5 184.3 316.2 151.9 315.3C119.4 314.5 99.9 327.2 76.8 336.4C53.6 345.5 26.8 351.3 0 357L0 0Z" fill="#aba4d5"></path></g></svg>