<svg id="visual" viewBox="0 0 960 540" width="960" height="540" xmlns="http://www.w3.org/2000/svg" xmlns:xlink="http://www.w3.org/1999/xlink" version="1.1"><rect x="0" y="0" width="960" height="540" fill="#ffffff"></rect><path d="M0 276L22.8 264.2C45.7 252.3 91.3 228.7 137 214.5C182.7 200.3 228.3 195.7 274 209.7C319.7 223.7 365.3 256.3 411.2 256.7C457 257 503 225 548.8 221.5C594.7 218 640.3 243 686 260.2C731.7 277.3 777.3 286.7 823 282.7C868.7 278.7 914.3 261.3 937.2 252.7L960 244L960 541L937.2 541C914.3 541 868.7 541 823 541C777.3 541 731.7 541 686 541C640.3 541 594.7 541 548.8 541C503 541 457 541 411.2 541C365.3 541 319.7 541 274 541C228.3 541 182.7 541 137 541C91.3 541 45.7 541 22.8 541L0 541Z" fill="#f999ff"></path><path d="M0 264L22.8 270.3C45.7 276.7 91.3 289.3 137 293.7C182.7 298 228.3 294 274 284.8C319.7 275.7 365.3 261.3 411.2 265.7C457 270 503 293 548.8 305.2C594.7 317.3 640.3 318.7 686 327.2C731.7 335.7 777.3 351.3 823 358.2C868.7 365 914.3 363 937.2 362L960 361L960 541L937.2 541C914.3 541 868.7 541 823 541C777.3 541 731.7 541 686 541C640.3 541 594.7 541 548.8 541C503 541 457 541 411.2 541C365.3 541 319.7 541 274 541C228.3 541 182.7 541 137 541C91.3 541 45.7 541 22.8 541L0 541Z" fill="#dd8fff"></path><path d="M0 381L22.8 378.7C45.7 376.3 91.3 371.7 137 364.3C182.7 357 228.3 347 274 343.2C319.7 339.3 365.3 341.7 411.2 347.5C457 353.3 503 362.7 548.8 356.8C594.7 351 640.3 330 686 323.7C731.7 317.3 777.3 325.7 823 334.7C868.7 343.7 914.3 353.3 937.2 358.2L960 363L960 541L937.2 541C914.3 541 868.7 541 823 541C777.3 541 731.7 541 686 541C640.3 541 594.7 541 548.8 541C503 541 457 541 411.2 541C365.3 541 319.7 541 274 541C228.3 541 182.7 541 137 541C91.3 541 45.7 541 22.8 541L0 541Z" fill="#bd87fe"></path><path d="M0 416L22.8 419.3C45.7 422.7 91.3 429.3 137 429.8C182.7 430.3 228.3 424.7 274 420.7C319.7 416.7 365.3 414.3 411.2 407.5C457 400.7 503 389.3 548.8 389.3C594.7 389.3 640.3 400.7 686 404C731.7 407.3 777.3 402.7 823 401.2C868.7 399.7 914.3 401.3 937.2 402.2L960 403L960 541L937.2 541C914.3 541 868.7 541 823 541C777.3 541 731.7 541 686 541C640.3 541 594.7 541 548.8 541C503 541 457 541 411.2 541C365.3 541 319.7 541 274 541C228.3 541 182.7 541 137 541C91.3 541 45.7 541 22.8 541L0 541Z" fill="#9980fc"></path><path d="M0 438L22.8 440.3C45.7 442.7 91.3 447.3 137 449C182.7 450.7 228.3 449.3 274 450.2C319.7 451 365.3 454 411.2 452.5C457 451 503 445 548.8 441.2C594.7 437.3 640.3 435.7 686 445C731.7 454.3 777.3 474.7 823 485.2C868.7 495.7 914.3 496.3 937.2 496.7L960 497L960 541L937.2 541C914.3 541 868.7 541 823 541C777.3 541 731.7 541 686 541C640.3 541 594.7 541 548.8 541C503 541 457 541 411.2 541C365.3 541 319.7 541 274 541C228.3 541 182.7 541 137 541C91.3 541 45.7 541 22.8 541L0 541Z" fill="#6c79f9"></path></svg>