<!-- <svg xmlns="http://www.w3.org/2000/svg" viewBox="0 0 1440 320"><path fill="#1d1e2c" fill-opacity="1" d="M0,64L26.7,64C53.3,64,107,64,160,90.7C213.3,117,267,171,320,197.3C373.3,224,427,224,480,218.7C533.3,213,587,203,640,170.7C693.3,139,747,85,800,85.3C853.3,85,907,139,960,160C1013.3,181,1067,171,1120,160C1173.3,149,1227,139,1280,117.3C1333.3,96,1387,64,1413,48L1440,32L1440,320L1413.3,320C1386.7,320,1333,320,1280,320C1226.7,320,1173,320,1120,320C1066.7,320,1013,320,960,320C906.7,320,853,320,800,320C746.7,320,693,320,640,320C586.7,320,533,320,480,320C426.7,320,373,320,320,320C266.7,320,213,320,160,320C106.7,320,53,320,27,320L0,320Z"></path></svg>
 -->

<svg
  xmlns="http://www.w3.org/2000/svg"
  viewBox="0 0 800 800"
  preserveAspectRatio="none"
  class="w-full h-full"
>
  <path
    d="M400 150 
       C 700 250, 100 350, 400 450 
       S 700 650, 400 750 
       C 100 650, 700 550, 400 450 
       S 100 250, 400 150"
    fill="#89A1EF"
    stroke="none"
  />
</svg>
