<svg id="visual" viewBox="0 0 900 600" width="900" height="600" xmlns="http://www.w3.org/2000/svg" xmlns:xlink="http://www.w3.org/1999/xlink" version="1.1"><path d="M0 61L13.7 60C27.3 59 54.7 57 82 60C109.3 63 136.7 71 163.8 79C191 87 218 95 245.2 91C272.3 87 299.7 71 327 61C354.3 51 381.7 47 409 55C436.3 63 463.7 83 491 91C518.3 99 545.7 95 573 93C600.3 91 627.7 91 654.8 82C682 73 709 55 736.2 50C763.3 45 790.7 53 818 61C845.3 69 872.7 77 886.3 81L900 85L900 0L886.3 0C872.7 0 845.3 0 818 0C790.7 0 763.3 0 736.2 0C709 0 682 0 654.8 0C627.7 0 600.3 0 573 0C545.7 0 518.3 0 491 0C463.7 0 436.3 0 409 0C381.7 0 354.3 0 327 0C299.7 0 272.3 0 245.2 0C218 0 191 0 163.8 0C136.7 0 109.3 0 82 0C54.7 0 27.3 0 13.7 0L0 0Z" fill="#a2d2f1"></path><path d="M0 133L13.7 132C27.3 131 54.7 129 82 133C109.3 137 136.7 147 163.8 151C191 155 218 153 245.2 150C272.3 147 299.7 143 327 134C354.3 125 381.7 111 409 121C436.3 131 463.7 165 491 178C518.3 191 545.7 183 573 178C600.3 173 627.7 171 654.8 170C682 169 709 169 736.2 170C763.3 171 790.7 173 818 178C845.3 183 872.7 191 886.3 195L900 199L900 83L886.3 79C872.7 75 845.3 67 818 59C790.7 51 763.3 43 736.2 48C709 53 682 71 654.8 80C627.7 89 600.3 89 573 91C545.7 93 518.3 97 491 89C463.7 81 436.3 61 409 53C381.7 45 354.3 49 327 59C299.7 69 272.3 85 245.2 89C218 93 191 85 163.8 77C136.7 69 109.3 61 82 58C54.7 55 27.3 57 13.7 58L0 59Z" fill="#c0e0f6"></path><path d="M0 217L13.7 224C27.3 231 54.7 245 82 265C109.3 285 136.7 311 163.8 328C191 345 218 353 245.2 353C272.3 353 299.7 345 327 325C354.3 305 381.7 273 409 265C436.3 257 463.7 273 491 290C518.3 307 545.7 325 573 324C600.3 323 627.7 303 654.8 296C682 289 709 295 736.2 314C763.3 333 790.7 365 818 377C845.3 389 872.7 381 886.3 377L900 373L900 197L886.3 193C872.7 189 845.3 181 818 176C790.7 171 763.3 169 736.2 168C709 167 682 167 654.8 168C627.7 169 600.3 171 573 176C545.7 181 518.3 189 491 176C463.7 163 436.3 129 409 119C381.7 109 354.3 123 327 132C299.7 141 272.3 145 245.2 148C218 151 191 153 163.8 149C136.7 145 109.3 135 82 131C54.7 127 27.3 129 13.7 130L0 131Z" fill="#d2e8f9"></path><path d="M0 385L13.7 379C27.3 373 54.7 361 82 375C109.3 389 136.7 429 163.8 454C191 479 218 489 245.2 494C272.3 499 299.7 499 327 473C354.3 447 381.7 395 409 376C436.3 357 463.7 371 491 384C518.3 397 545.7 409 573 404C600.3 399 627.7 377 654.8 375C682 373 709 391 736.2 412C763.3 433 790.7 457 818 461C845.3 465 872.7 449 886.3 441L900 433L900 371L886.3 375C872.7 379 845.3 387 818 375C790.7 363 763.3 331 736.2 312C709 293 682 287 654.8 294C627.7 301 600.3 321 573 322C545.7 323 518.3 305 491 288C463.7 271 436.3 255 409 263C381.7 271 354.3 303 327 323C299.7 343 272.3 351 245.2 351C218 351 191 343 163.8 326C136.7 309 109.3 283 82 263C54.7 243 27.3 229 13.7 222L0 215Z" fill="#c0e0f6"></path><path d="M0 601L13.7 601C27.3 601 54.7 601 82 601C109.3 601 136.7 601 163.8 601C191 601 218 601 245.2 601C272.3 601 299.7 601 327 601C354.3 601 381.7 601 409 601C436.3 601 463.7 601 491 601C518.3 601 545.7 601 573 601C600.3 601 627.7 601 654.8 601C682 601 709 601 736.2 601C763.3 601 790.7 601 818 601C845.3 601 872.7 601 886.3 601L900 601L900 431L886.3 439C872.7 447 845.3 463 818 459C790.7 455 763.3 431 736.2 410C709 389 682 371 654.8 373C627.7 375 600.3 397 573 402C545.7 407 518.3 395 491 382C463.7 369 436.3 355 409 374C381.7 393 354.3 445 327 471C299.7 497 272.3 497 245.2 492C218 487 191 477 163.8 452C136.7 427 109.3 387 82 373C54.7 359 27.3 371 13.7 377L0 383Z" fill="#a2d2f1"></path></svg>